<?xml version="1.0" encoding="UTF-8" standalone="no"?>
<!-- Created with Inkscape (http://www.inkscape.org/) -->

<svg
   xmlns:dc="http://purl.org/dc/elements/1.1/"
   xmlns:cc="http://creativecommons.org/ns#"
   xmlns:rdf="http://www.w3.org/1999/02/22-rdf-syntax-ns#"
   xmlns:svg="http://www.w3.org/2000/svg"
   xmlns="http://www.w3.org/2000/svg"
   xmlns:sodipodi="http://sodipodi.sourceforge.net/DTD/sodipodi-0.dtd"
   xmlns:inkscape="http://www.inkscape.org/namespaces/inkscape"
   width="32px"
   height="32px"
   id="svg4438"
   version="1.1"
   inkscape:version="0.48.4 r9939"
   sodipodi:docname="facebook.svg">
  <defs
     id="defs4440" />
  <sodipodi:namedview
     id="base"
     pagecolor="#ffffff"
     bordercolor="#666666"
     borderopacity="1.0"
     inkscape:pageopacity="0.0"
     inkscape:pageshadow="2"
     inkscape:zoom="5.598901"
     inkscape:cx="16"
     inkscape:cy="16"
     inkscape:current-layer="layer1"
     showgrid="true"
     inkscape:grid-bbox="true"
     inkscape:document-units="px"
     inkscape:window-width="1050"
     inkscape:window-height="644"
     inkscape:window-x="50"
     inkscape:window-y="50"
     inkscape:window-maximized="0"
     showguides="true"
     inkscape:guide-bbox="true" />
  <metadata
     id="metadata4443">
    <rdf:RDF>
      <cc:Work
         rdf:about="">
        <dc:format>image/svg+xml</dc:format>
        <dc:type
           rdf:resource="http://purl.org/dc/dcmitype/StillImage" />
        <dc:title></dc:title>
      </cc:Work>
    </rdf:RDF>
  </metadata>
  <g
     id="layer1"
     inkscape:label="Layer 1"
     inkscape:groupmode="layer">
    <path
       style="fill:#cccccc;fill-opacity:1;fill-rule:nonzero;stroke:none"
       d="M 5 -0.15625 C 2.23 -0.15625 -3.8684334e-018 2.07375 0 4.84375 L 0 27.1875 C 0 29.9575 2.23 32.1875 5 32.1875 L 27.3125 32.1875 C 30.0825 32.1875 32.3125 29.9575 32.3125 27.1875 L 32.3125 4.84375 C 32.3125 2.07375 30.0825 -0.15625 27.3125 -0.15625 L 5 -0.15625 z M 17.9375 5.5625 L 20.96875 5.5625 L 20.96875 9.375 L 19.0625 9.375 C 18.378325 9.3766902 17.95647 9.4905235 17.78125 9.75 C 17.606014 10.009509 17.53682 10.409044 17.5625 10.90625 L 17.5625 12.8125 L 21 12.8125 L 20.59375 16.59375 L 17.5625 16.59375 L 17.5625 27.65625 L 13 27.65625 L 13 16.59375 L 10.71875 16.59375 L 10.71875 12.8125 L 13 12.8125 L 13 10.5 C 12.977396 8.9405503 13.33787 7.7363656 14.09375 6.875 C 14.849622 6.0136725 16.131928 5.575077 17.9375 5.5625 z "
       id="rect4446" />
    <g
       style="font-size:24px;font-style:normal;font-variant:normal;font-weight:normal;font-stretch:normal;line-height:125%;letter-spacing:0px;word-spacing:0px;fill:#ffffff;fill-opacity:1;stroke:none;font-family:FontAwesome;-inkscape-font-specification:FontAwesome"
       id="text4448" />
  </g>
</svg>
