<?xml version="1.0" encoding="UTF-8" standalone="no"?>
<!-- Created with Inkscape (http://www.inkscape.org/) -->

<svg
   xmlns:dc="http://purl.org/dc/elements/1.1/"
   xmlns:cc="http://creativecommons.org/ns#"
   xmlns:rdf="http://www.w3.org/1999/02/22-rdf-syntax-ns#"
   xmlns:svg="http://www.w3.org/2000/svg"
   xmlns="http://www.w3.org/2000/svg"
   xmlns:sodipodi="http://sodipodi.sourceforge.net/DTD/sodipodi-0.dtd"
   xmlns:inkscape="http://www.inkscape.org/namespaces/inkscape"
   width="32px"
   height="32px"
   id="svg4438"
   version="1.1"
   inkscape:version="0.48.4 r9939"
   sodipodi:docname="rss.svg">
  <defs
     id="defs4440" />
  <sodipodi:namedview
     id="base"
     pagecolor="#ffffff"
     bordercolor="#666666"
     borderopacity="1.0"
     inkscape:pageopacity="0.0"
     inkscape:pageshadow="2"
     inkscape:zoom="5.598901"
     inkscape:cx="16"
     inkscape:cy="16"
     inkscape:current-layer="layer1"
     showgrid="true"
     inkscape:grid-bbox="true"
     inkscape:document-units="px"
     inkscape:window-width="1050"
     inkscape:window-height="644"
     inkscape:window-x="50"
     inkscape:window-y="50"
     inkscape:window-maximized="0" />
  <metadata
     id="metadata4443">
    <rdf:RDF>
      <cc:Work
         rdf:about="">
        <dc:format>image/svg+xml</dc:format>
        <dc:type
           rdf:resource="http://purl.org/dc/dcmitype/StillImage" />
        <dc:title></dc:title>
      </cc:Work>
    </rdf:RDF>
  </metadata>
  <g
     id="layer1"
     inkscape:label="Layer 1"
     inkscape:groupmode="layer">
    <path
       style="fill:#cccccc;fill-opacity:1;fill-rule:nonzero;stroke:none"
       d="M 5 -0.15625 C 2.23 -0.15625 -3.8684334e-018 2.07375 0 4.84375 L 0 27.1875 C 0 29.9575 2.23 32.1875 5 32.1875 L 27.3125 32.1875 C 30.0825 32.1875 32.3125 29.9575 32.3125 27.1875 L 32.3125 4.84375 C 32.3125 2.07375 30.0825 -0.15625 27.3125 -0.15625 L 5 -0.15625 z M 13.5625 5.8125 L 19.40625 5.8125 L 17.59375 6.875 L 15.78125 6.875 C 16.44448 7.3091791 16.947804 7.8783487 17.28125 8.59375 C 17.614672 9.3091834 17.780959 10.074778 17.78125 10.84375 C 17.744199 11.997311 17.48148 12.86731 17 13.46875 C 16.518496 14.070213 16.043981 14.565229 15.5625 14.96875 C 15.080997 15.372291 14.81828 15.846474 14.78125 16.40625 C 14.830844 16.956782 15.167634 17.466845 15.8125 17.9375 C 16.457345 18.408168 17.105132 18.992136 17.75 19.6875 C 18.394842 20.382874 18.76288 21.337855 18.8125 22.5625 C 18.805511 23.331771 18.614671 24.029283 18.28125 24.65625 C 17.947804 25.283217 17.513673 25.849038 16.9375 26.34375 C 16.153152 26.996943 15.261452 27.455627 14.28125 27.71875 C 13.301029 27.981867 12.317816 28.10355 11.3125 28.09375 C 10.44847 28.099699 9.5296963 27.986609 8.59375 27.71875 C 7.6577967 27.450884 6.8764186 27.019356 6.21875 26.40625 C 5.5610794 25.793139 5.216684 24.967286 5.1875 23.9375 C 5.190569 23.621925 5.220701 23.303859 5.3125 23 C 5.4042985 22.696144 5.5438014 22.407095 5.6875 22.125 C 6.1086398 21.329102 6.7217056 20.693218 7.5625 20.25 C 8.4032897 19.80679 9.3065208 19.495297 10.28125 19.3125 C 11.255968 19.129714 12.177058 19.04589 13 19.03125 C 12.770913 18.743025 12.573378 18.42719 12.40625 18.09375 C 12.23911 17.760322 12.1331 17.406545 12.125 17.03125 C 12.1289 16.815851 12.15792 16.612735 12.21875 16.4375 C 12.27957 16.262281 12.36662 16.077022 12.4375 15.875 C 12.118289 15.91743 11.805803 15.9353 11.5 15.9375 C 10.161236 15.913791 9.0206646 15.495285 8.09375 14.65625 C 7.1668295 13.817235 6.66462 12.713491 6.625 11.34375 C 6.6562485 10.045185 7.1093537 8.9224704 7.9375 7.96875 C 8.7656407 7.0150631 9.7812163 6.38786 11.03125 6.09375 C 11.85269 5.9174257 12.714258 5.81475 13.5625 5.8125 z M 22.3125 5.8125 L 24.03125 5.8125 L 24.03125 9.25 L 27.46875 9.25 L 27.46875 10.96875 L 24.03125 10.96875 L 24.03125 14.40625 L 22.3125 14.40625 L 22.3125 10.96875 L 18.90625 10.96875 L 18.90625 9.25 L 22.3125 9.25 L 22.3125 5.8125 z M 11.71875 6.78125 C 10.842329 6.8130767 10.182762 7.132258 9.75 7.75 C 9.3172295 8.3677757 9.1241592 9.0842598 9.125 9.90625 C 9.1268142 10.611637 9.2739641 11.386899 9.5625 12.1875 C 9.8510271 12.988125 10.259076 13.675593 10.8125 14.25 C 11.365913 14.824428 12.047263 15.129473 12.84375 15.15625 C 13.749175 15.135054 14.375261 14.838193 14.75 14.28125 C 15.12472 13.724328 15.32449 13.0257 15.3125 12.1875 C 15.314226 11.47999 15.190224 10.703571 14.9375 9.875 C 14.684756 9.0464581 14.278029 8.3211276 13.75 7.71875 C 13.221954 7.1164064 12.542918 6.810204 11.71875 6.78125 z M 13.125 19.84375 C 12.366046 19.835157 11.555072 19.927248 10.71875 20.125 C 9.8824169 20.32276 9.1860217 20.648967 8.59375 21.15625 C 8.0014716 21.66354 7.683034 22.392508 7.65625 23.3125 C 7.7321413 24.585966 8.3080079 25.505567 9.375 26.0625 C 10.441984 26.619431 11.540145 26.88727 12.6875 26.875 C 13.736343 26.890344 14.706165 26.666024 15.5625 26.1875 C 16.418814 25.708972 16.85518 24.875305 16.90625 23.71875 C 16.861594 22.796577 16.529021 22.036568 15.875 21.4375 C 15.220957 20.838439 14.508936 20.303865 13.78125 19.84375 C 13.558022 19.82146 13.348211 19.83925 13.125 19.84375 z "
       id="rect4446" />
    <g
       style="font-size:24px;font-style:normal;font-variant:normal;font-weight:normal;font-stretch:normal;line-height:125%;letter-spacing:0px;word-spacing:0px;fill:#4d4d4d;fill-opacity:1;stroke:none;font-family:FontAwesome;-inkscape-font-specification:FontAwesome"
       id="text4448" />
  </g>
</svg>
