<?xml version="1.0" encoding="UTF-8" standalone="no"?>
<!-- Created with Inkscape (http://www.inkscape.org/) -->

<svg
   xmlns:dc="http://purl.org/dc/elements/1.1/"
   xmlns:cc="http://creativecommons.org/ns#"
   xmlns:rdf="http://www.w3.org/1999/02/22-rdf-syntax-ns#"
   xmlns:svg="http://www.w3.org/2000/svg"
   xmlns="http://www.w3.org/2000/svg"
   xmlns:sodipodi="http://sodipodi.sourceforge.net/DTD/sodipodi-0.dtd"
   xmlns:inkscape="http://www.inkscape.org/namespaces/inkscape"
   width="32px"
   height="32px"
   id="svg4438"
   version="1.1"
   inkscape:version="0.48.4 r9939"
   sodipodi:docname="google.svg">
  <defs
     id="defs4440" />
  <sodipodi:namedview
     id="base"
     pagecolor="#ffffff"
     bordercolor="#666666"
     borderopacity="1.0"
     inkscape:pageopacity="0.0"
     inkscape:pageshadow="2"
     inkscape:zoom="5.598901"
     inkscape:cx="16"
     inkscape:cy="16"
     inkscape:current-layer="layer1"
     showgrid="true"
     inkscape:grid-bbox="true"
     inkscape:document-units="px"
     inkscape:window-width="1050"
     inkscape:window-height="644"
     inkscape:window-x="50"
     inkscape:window-y="50"
     inkscape:window-maximized="0" />
  <metadata
     id="metadata4443">
    <rdf:RDF>
      <cc:Work
         rdf:about="">
        <dc:format>image/svg+xml</dc:format>
        <dc:type
           rdf:resource="http://purl.org/dc/dcmitype/StillImage" />
        <dc:title></dc:title>
      </cc:Work>
    </rdf:RDF>
  </metadata>
  <g
     id="layer1"
     inkscape:label="Layer 1"
     inkscape:groupmode="layer">
    <path
       style="fill:#cccccc;fill-opacity:1;fill-rule:nonzero;stroke:none"
       d="M 5 -0.15625 C 2.23 -0.15625 -3.8684334e-018 2.07375 0 4.84375 L 0 27.1875 C 0 29.9575 2.23 32.1875 5 32.1875 L 27.3125 32.1875 C 30.0825 32.1875 32.3125 29.9575 32.3125 27.1875 L 32.3125 4.84375 C 32.3125 2.07375 30.0825 -0.15625 27.3125 -0.15625 L 5 -0.15625 z M 15.8125 5.8125 C 18.725499 5.8861806 21.158422 6.9084552 23.09375 8.84375 C 25.029043 10.779076 26.020067 13.180748 26.09375 16.09375 C 26.020067 19.006768 25.029043 21.439691 23.09375 23.375 C 21.158422 25.310312 18.725499 26.33259 15.8125 26.40625 C 14.799074 26.404015 13.839298 26.252237 12.90625 25.96875 C 13.106303 25.657079 13.308302 25.314461 13.5 24.9375 C 13.691681 24.560539 13.824486 24.179976 13.9375 23.78125 C 13.929957 23.811665 13.9958 23.629753 14.09375 23.25 C 14.191679 22.870249 14.362429 22.092383 14.65625 20.9375 C 14.843466 21.28991 15.168228 21.596816 15.625 21.84375 C 16.081752 22.090689 16.618558 22.20787 17.1875 22.21875 C 18.866375 22.177456 20.186625 21.519005 21.1875 20.21875 C 22.188343 18.918503 22.6939 17.219921 22.71875 15.15625 C 22.693062 13.580612 22.101572 12.242506 20.9375 11.09375 C 19.773397 9.9450222 18.213203 9.336791 16.21875 9.28125 C 14.593373 9.3065635 13.243899 9.6279768 12.15625 10.28125 C 11.068587 10.934553 10.233473 11.772312 9.6875 12.75 C 9.1415185 13.727712 8.8753276 14.720225 8.875 15.71875 C 8.8730431 16.619448 9.0304016 17.418518 9.375 18.125 C 9.7195908 18.831496 10.254164 19.344864 10.96875 19.65625 C 11.085376 19.70288 11.18805 19.70174 11.28125 19.65625 C 11.374438 19.610774 11.43247 19.509215 11.46875 19.375 C 11.497765 19.27651 11.55133 19.139239 11.59375 18.96875 C 11.636155 18.798272 11.65848 18.667698 11.6875 18.5625 C 11.72237 18.43555 11.73911 18.32506 11.71875 18.25 C 11.698375 18.174949 11.65485 18.075623 11.5625 17.96875 C 11.352389 17.723773 11.18387 17.453698 11.0625 17.125 C 10.94112 16.796318 10.8775 16.414639 10.875 15.96875 C 10.890899 14.626654 11.327262 13.481618 12.21875 12.53125 C 13.110225 11.580907 14.361283 11.07423 15.9375 11.03125 C 17.323123 11.054422 18.36102 11.428288 19.09375 12.15625 C 19.826454 12.884236 20.21255 13.81388 20.21875 14.96875 C 20.204784 16.491394 19.898994 17.7737 19.3125 18.8125 C 18.725978 19.851312 17.92914 20.39481 16.9375 20.4375 C 16.385301 20.423553 15.944473 20.247223 15.625 19.875 C 15.305536 19.502787 15.201717 19.031826 15.3125 18.46875 C 15.485206 17.80719 15.698367 17.143158 15.90625 16.5 C 16.114112 15.856858 16.23129 15.293269 16.25 14.8125 C 16.250546 14.378628 16.136713 14.013689 15.90625 13.71875 C 15.675766 13.423833 15.311942 13.29326 14.84375 13.28125 C 14.28067 13.296886 13.80971 13.540178 13.4375 14.03125 C 13.065274 14.522343 12.88894 15.158474 12.875 15.9375 C 12.86801 15.964573 12.87136 16.146484 12.90625 16.5 C 12.94112 16.853532 13.027054 17.207309 13.1875 17.5625 C 12.640048 19.881754 12.300778 21.417398 12.125 22.15625 C 11.949203 22.895108 11.85993 23.22098 11.875 23.15625 C 11.784035 23.549675 11.73939 23.964835 11.71875 24.375 C 11.69809 24.785166 11.67131 25.164611 11.6875 25.53125 C 9.8428666 24.70478 8.3663731 23.472695 7.25 21.8125 C 6.1336235 20.15231 5.561106 18.232756 5.53125 16.09375 C 5.6049117 13.180748 6.6271864 10.779076 8.5625 8.84375 C 10.497808 6.9084557 12.899479 5.8861811 15.8125 5.8125 z "
       id="rect4446" />
    <g
       style="font-size:24px;font-style:normal;font-variant:normal;font-weight:normal;font-stretch:normal;line-height:125%;letter-spacing:0px;word-spacing:0px;fill:#4d4d4d;fill-opacity:1;stroke:none;font-family:FontAwesome;-inkscape-font-specification:FontAwesome"
       id="text4448" />
  </g>
</svg>
