<?xml version="1.0" encoding="UTF-8" standalone="no"?>
<!-- Created with Inkscape (http://www.inkscape.org/) -->

<svg
   xmlns:dc="http://purl.org/dc/elements/1.1/"
   xmlns:cc="http://creativecommons.org/ns#"
   xmlns:rdf="http://www.w3.org/1999/02/22-rdf-syntax-ns#"
   xmlns:svg="http://www.w3.org/2000/svg"
   xmlns="http://www.w3.org/2000/svg"
   xmlns:sodipodi="http://sodipodi.sourceforge.net/DTD/sodipodi-0.dtd"
   xmlns:inkscape="http://www.inkscape.org/namespaces/inkscape"
   width="32px"
   height="32px"
   id="svg4438"
   version="1.1"
   inkscape:version="0.48.4 r9939"
   sodipodi:docname="twitter.svg">
  <defs
     id="defs4440" />
  <sodipodi:namedview
     id="base"
     pagecolor="#ffffff"
     bordercolor="#666666"
     borderopacity="1.0"
     inkscape:pageopacity="0.0"
     inkscape:pageshadow="2"
     inkscape:zoom="5.598901"
     inkscape:cx="16"
     inkscape:cy="16"
     inkscape:current-layer="layer1"
     showgrid="true"
     inkscape:grid-bbox="true"
     inkscape:document-units="px"
     inkscape:window-width="1050"
     inkscape:window-height="644"
     inkscape:window-x="50"
     inkscape:window-y="50"
     inkscape:window-maximized="0" />
  <metadata
     id="metadata4443">
    <rdf:RDF>
      <cc:Work
         rdf:about="">
        <dc:format>image/svg+xml</dc:format>
        <dc:type
           rdf:resource="http://purl.org/dc/dcmitype/StillImage" />
        <dc:title></dc:title>
      </cc:Work>
    </rdf:RDF>
  </metadata>
  <g
     id="layer1"
     inkscape:label="Layer 1"
     inkscape:groupmode="layer">
    <path
       style="fill:#cccccc;fill-opacity:1;fill-rule:nonzero;stroke:none"
       d="M 5 -0.15625 C 2.23 -0.15625 -3.8684334e-018 2.07375 0 4.84375 L 0 27.1875 C 0 29.9575 2.23 32.1875 5 32.1875 L 27.3125 32.1875 C 30.0825 32.1875 32.3125 29.9575 32.3125 27.1875 L 32.3125 4.84375 C 32.3125 2.07375 30.0825 -0.15625 27.3125 -0.15625 L 5 -0.15625 z M 8 6.1875 C 8.013392 6.1875188 8.017856 6.1875188 8.03125 6.1875 C 10.391791 6.315591 12.630527 6.834539 14.75 7.78125 C 16.869459 8.7279955 18.791244 10.043782 20.46875 11.71875 C 22.143717 13.396255 23.428255 15.286792 24.375 17.40625 C 25.321711 19.525724 25.871909 21.764454 26 24.125 C 26.00668 24.239958 25.97766 24.36049 25.9375 24.46875 C 25.897301 24.577012 25.83704 24.69308 25.75 24.78125 C 25.584799 24.957594 25.401773 25.02905 25.15625 25.03125 L 23.21875 25.03125 C 22.985469 25.026227 22.784586 24.961499 22.625 24.8125 C 22.465382 24.663502 22.39396 24.451456 22.375 24.21875 C 22.201865 21.599232 21.45438 19.239058 20.15625 17.125 C 18.858093 15.010957 17.17613 13.300058 15.0625 12 C 12.948855 10.699968 10.5571 9.9587657 7.9375 9.78125 C 7.7047934 9.7620124 7.5239986 9.6894721 7.375 9.53125 C 7.2260008 9.373059 7.16127 9.1643626 7.15625 8.9375 L 7.15625 7.03125 C 7.158482 6.7857272 7.2299065 6.5714511 7.40625 6.40625 C 7.4877245 6.3259097 7.5859344 6.2901982 7.6875 6.25 C 7.7890645 6.2098393 7.8917377 6.1875188 8 6.1875 z M 8 13.03125 C 8.022321 13.031262 8.040177 13.031262 8.0625 13.03125 C 9.4994717 13.149847 10.863248 13.525946 12.15625 14.125 C 13.449242 14.724075 14.603205 15.508636 15.625 16.53125 C 16.647614 17.553044 17.463424 18.707009 18.0625 20 C 18.661554 21.293002 19.037653 22.688027 19.15625 24.125 C 19.167398 24.372774 19.069188 24.569193 18.90625 24.75 C 18.824763 24.843752 18.73325 24.92187 18.625 24.96875 C 18.516727 25.01563 18.402893 25.03125 18.28125 25.03125 L 16.46875 25.03125 C 16.242731 25.026506 16.061937 24.956198 15.90625 24.8125 C 15.750546 24.668803 15.6501 24.475731 15.625 24.25 C 15.388937 22.165692 14.567547 20.411309 13.15625 19 C 11.744941 17.588703 9.9905585 16.767313 7.90625 16.53125 C 7.6805185 16.506146 7.5186971 16.436954 7.375 16.28125 C 7.2313021 16.125563 7.16099 15.913518 7.15625 15.6875 L 7.15625 13.90625 C 7.15625 13.784608 7.171874 13.639523 7.21875 13.53125 C 7.2656261 13.422999 7.343747 13.33149 7.4375 13.25 C 7.5125567 13.176071 7.5873297 13.13255 7.6875 13.09375 C 7.7876693 13.05498 7.8914587 13.031541 8 13.03125 z M 9.71875 19.90625 C 10.447 19.92467 11.047418 20.172426 11.53125 20.65625 C 12.015074 21.140082 12.26283 21.7405 12.28125 22.46875 C 12.262829 23.197005 12.015073 23.797423 11.53125 24.28125 C 11.047418 24.765079 10.447 25.01283 9.71875 25.03125 C 8.9904953 25.012834 8.3900768 24.765078 7.90625 24.28125 C 7.4224216 23.797423 7.174666 23.197005 7.15625 22.46875 C 7.1746649 21.740501 7.4224214 21.140082 7.90625 20.65625 C 8.3900771 20.172427 8.9904948 19.92467 9.71875 19.90625 z "
       id="rect4446" />
    <g
       style="font-size:24px;font-style:normal;font-variant:normal;font-weight:normal;font-stretch:normal;line-height:125%;letter-spacing:0px;word-spacing:0px;fill:#333333;fill-opacity:1;stroke:none;font-family:FontAwesome;-inkscape-font-specification:FontAwesome"
       id="text4448" />
  </g>
</svg>
