<?xml version="1.0" encoding="UTF-8" standalone="no"?>
<!-- Created with Inkscape (http://www.inkscape.org/) -->

<svg
   xmlns:dc="http://purl.org/dc/elements/1.1/"
   xmlns:cc="http://creativecommons.org/ns#"
   xmlns:rdf="http://www.w3.org/1999/02/22-rdf-syntax-ns#"
   xmlns:svg="http://www.w3.org/2000/svg"
   xmlns="http://www.w3.org/2000/svg"
   xmlns:sodipodi="http://sodipodi.sourceforge.net/DTD/sodipodi-0.dtd"
   xmlns:inkscape="http://www.inkscape.org/namespaces/inkscape"
   width="32px"
   height="32px"
   id="svg4438"
   version="1.1"
   inkscape:version="0.48.4 r9939"
   sodipodi:docname="facebook.svg">
  <defs
     id="defs4440" />
  <sodipodi:namedview
     id="base"
     pagecolor="#ffffff"
     bordercolor="#666666"
     borderopacity="1.0"
     inkscape:pageopacity="0.0"
     inkscape:pageshadow="2"
     inkscape:zoom="5.598901"
     inkscape:cx="16"
     inkscape:cy="16"
     inkscape:current-layer="layer1"
     showgrid="true"
     inkscape:grid-bbox="true"
     inkscape:document-units="px"
     inkscape:window-width="1050"
     inkscape:window-height="644"
     inkscape:window-x="50"
     inkscape:window-y="50"
     inkscape:window-maximized="0" />
  <metadata
     id="metadata4443">
    <rdf:RDF>
      <cc:Work
         rdf:about="">
        <dc:format>image/svg+xml</dc:format>
        <dc:type
           rdf:resource="http://purl.org/dc/dcmitype/StillImage" />
        <dc:title></dc:title>
      </cc:Work>
    </rdf:RDF>
  </metadata>
  <g
     id="layer1"
     inkscape:label="Layer 1"
     inkscape:groupmode="layer">
    <path
       style="fill:#cccccc;fill-opacity:1;fill-rule:nonzero;stroke:none"
       d="M 5 -0.15625 C 2.23 -0.15625 -3.8684334e-018 2.07375 0 4.84375 L 0 27.1875 C 0 29.9575 2.23 32.1875 5 32.1875 L 27.3125 32.1875 C 30.0825 32.1875 32.3125 29.9575 32.3125 27.1875 L 32.3125 4.84375 C 32.3125 2.07375 30.0825 -0.15625 27.3125 -0.15625 L 5 -0.15625 z M 20.375 7.53125 C 21.00223 7.5354524 21.584793 7.6660274 22.125 7.90625 C 22.665173 8.1465061 23.131669 8.4801956 23.53125 8.90625 C 24.021477 8.8116767 24.506945 8.6766384 24.96875 8.5 C 25.430515 8.323394 25.864646 8.092377 26.28125 7.84375 C 26.117441 8.3490792 25.888658 8.8122276 25.5625 9.21875 C 25.236301 9.6253033 24.82672 9.9790821 24.375 10.25 C 24.811095 10.202022 25.23853 10.114972 25.65625 10 C 26.073928 9.8850567 26.48574 9.7310454 26.875 9.5625 C 26.579492 9.9922117 26.239105 10.40514 25.875 10.78125 C 25.510853 11.157388 25.141452 11.503354 24.71875 11.8125 C 24.72984 12.000017 24.72095 12.187508 24.71875 12.375 C 24.7141 14.327353 24.256617 16.224254 23.3125 18.09375 C 22.368348 19.963259 20.953068 21.51593 19.125 22.75 C 17.296904 23.984073 15.062716 24.64145 12.40625 24.6875 C 11.176863 24.683593 9.9938822 24.491637 8.875 24.15625 C 7.7561102 23.820864 6.7427658 23.369993 5.78125 22.75 C 6.1227747 22.78795 6.4575798 22.78345 6.8125 22.78125 C 7.8281452 22.777066 8.7789935 22.633101 9.6875 22.3125 C 10.595997 21.991904 11.439709 21.524291 12.1875 20.9375 C 11.221233 20.902067 10.376406 20.608555 9.65625 20.0625 C 8.9360848 19.516455 8.4149028 18.810015 8.125 17.9375 C 8.3906275 17.97992 8.6897219 17.9978 8.96875 18 C 9.3616115 17.997774 9.7276651 17.97099 10.09375 17.875 C 9.0820039 17.653741 8.2650784 17.143719 7.625 16.375 C 6.9849168 15.606297 6.645647 14.696742 6.625 13.625 L 6.625 13.5625 C 6.9140675 13.724344 7.2332496 13.84264 7.5625 13.9375 C 7.8917457 14.032377 8.2377117 14.1105 8.59375 14.125 C 8.0036107 13.728797 7.5315345 13.217659 7.1875 12.59375 C 6.8434615 11.969864 6.66378 11.257844 6.65625 10.5 C 6.6573639 10.097662 6.7109334 9.7092869 6.8125 9.34375 C 6.9140634 8.9782438 7.0613776 8.6345099 7.25 8.3125 C 8.3289836 9.6378796 9.6269135 10.707027 11.15625 11.5 C 12.685574 12.292999 14.347327 12.737174 16.15625 12.84375 C 16.087045 12.520093 16.0647 12.212073 16.0625 11.875 C 16.092902 10.651772 16.50025 9.6272657 17.3125 8.8125 C 18.124727 7.997766 19.145884 7.562518 20.375 7.53125 z "
       id="rect4446" />
    <g
       style="font-size:24px;font-style:normal;font-variant:normal;font-weight:normal;font-stretch:normal;line-height:125%;letter-spacing:0px;word-spacing:0px;fill:#ffffff;fill-opacity:1;stroke:none;font-family:FontAwesome;-inkscape-font-specification:FontAwesome"
       id="text4448" />
  </g>
</svg>
