<?xml version="1.0" encoding="UTF-8" standalone="no"?>
<!-- Created with Inkscape (http://www.inkscape.org/) -->

<svg
   xmlns:dc="http://purl.org/dc/elements/1.1/"
   xmlns:cc="http://creativecommons.org/ns#"
   xmlns:rdf="http://www.w3.org/1999/02/22-rdf-syntax-ns#"
   xmlns:svg="http://www.w3.org/2000/svg"
   xmlns="http://www.w3.org/2000/svg"
   xmlns:sodipodi="http://sodipodi.sourceforge.net/DTD/sodipodi-0.dtd"
   xmlns:inkscape="http://www.inkscape.org/namespaces/inkscape"
   width="32px"
   height="32px"
   id="svg4438"
   version="1.1"
   inkscape:version="0.48.4 r9939"
   sodipodi:docname="pinterest.svg">
  <defs
     id="defs4440" />
  <sodipodi:namedview
     id="base"
     pagecolor="#ffffff"
     bordercolor="#666666"
     borderopacity="1.0"
     inkscape:pageopacity="0.0"
     inkscape:pageshadow="2"
     inkscape:zoom="5.598901"
     inkscape:cx="16"
     inkscape:cy="16"
     inkscape:current-layer="layer1"
     showgrid="true"
     inkscape:grid-bbox="true"
     inkscape:document-units="px"
     inkscape:window-width="1050"
     inkscape:window-height="644"
     inkscape:window-x="50"
     inkscape:window-y="50"
     inkscape:window-maximized="0" />
  <metadata
     id="metadata4443">
    <rdf:RDF>
      <cc:Work
         rdf:about="">
        <dc:format>image/svg+xml</dc:format>
        <dc:type
           rdf:resource="http://purl.org/dc/dcmitype/StillImage" />
        <dc:title></dc:title>
      </cc:Work>
    </rdf:RDF>
  </metadata>
  <g
     id="layer1"
     inkscape:label="Layer 1"
     inkscape:groupmode="layer">
    <path
       style="fill:#cccccc;fill-opacity:1;fill-rule:nonzero;stroke:none"
       d="M 5 -0.15625 C 2.23 -0.15625 -3.8684334e-018 2.07375 0 4.84375 L 0 27.1875 C 0 29.9575 2.23 32.1875 5 32.1875 L 27.3125 32.1875 C 30.0825 32.1875 32.3125 29.9575 32.3125 27.1875 L 32.3125 4.84375 C 32.3125 2.07375 30.0825 -0.15625 27.3125 -0.15625 L 5 -0.15625 z M 9.40625 5.8125 L 22.25 5.8125 C 23.342362 5.840142 24.24299 6.2117764 24.96875 6.9375 C 25.694472 7.6632591 26.066107 8.5951361 26.09375 9.6875 L 26.09375 22.53125 C 26.066106 23.623631 25.694472 24.524258 24.96875 25.25 C 24.242989 25.97574 23.342362 26.37862 22.25 26.40625 L 9.40625 26.40625 C 8.3138672 26.378624 7.38199 25.975741 6.65625 25.25 C 5.9305078 24.524259 5.558874 23.623631 5.53125 22.53125 L 5.53125 9.6875 C 5.5588731 8.5951361 5.9305075 7.6632588 6.65625 6.9375 C 7.3819902 6.2117766 8.3138672 5.8401425 9.40625 5.8125 z M 20.1875 10.21875 C 19.962886 10.219584 19.742045 10.24568 19.53125 10.28125 C 19.14702 10.324513 18.565574 10.59124 17.78125 11.125 C 16.996901 11.658786 16.399832 12.508077 15.96875 13.65625 C 16.629468 13.583156 17.111588 13.645654 17.4375 13.84375 C 17.763389 14.041868 17.90624 14.48381 17.84375 15.1875 C 17.812208 15.496668 17.724042 15.833708 17.59375 16.15625 C 17.463434 16.47881 17.328396 16.802455 17.15625 17.125 C 16.953387 17.560006 16.671035 17.95396 16.3125 18.34375 C 15.953944 18.733557 15.522044 18.705652 15.03125 18.25 C 14.620238 17.750832 14.37583 17.120282 14.28125 16.375 C 14.186652 15.629736 14.10072 14.938919 14.03125 14.3125 C 13.972925 13.971543 13.91378 13.634507 13.84375 13.25 C 13.773707 12.865516 13.667684 12.479372 13.5625 12.125 C 13.465112 11.816412 13.327843 11.535177 13.125 11.25 C 12.922142 10.964851 12.671037 10.75057 12.40625 10.65625 C 12.109362 10.58483 11.810269 10.60492 11.5 10.6875 C 11.189719 10.770105 10.935267 10.870547 10.71875 11 C 10.080338 11.399018 9.4933117 11.847657 8.96875 12.34375 C 8.4441814 12.839866 7.875012 13.315291 7.25 13.78125 L 7.25 13.875 C 7.4428034 13.991084 7.5532893 14.120543 7.59375 14.25 C 7.6342065 14.379477 7.729068 14.464295 7.875 14.5 C 8.2740012 14.497778 8.64452 14.42412 9 14.28125 C 9.355473 14.1384 9.6724221 14.27009 9.9375 14.65625 C 10.091237 14.925517 10.199492 15.181085 10.28125 15.46875 C 10.363 15.756433 10.469021 16.05441 10.5625 16.34375 C 10.700891 16.732717 10.825885 17.143413 10.9375 17.5625 C 11.049105 17.981601 11.169634 18.401224 11.28125 18.84375 C 11.452565 19.651251 11.691393 20.503892 12 21.375 C 12.308594 22.246117 12.766161 22.830909 13.40625 23.15625 C 13.752232 23.281813 14.149536 23.29967 14.5625 23.1875 C 14.975447 23.075334 15.296859 22.91909 15.5625 22.75 C 16.243587 22.341511 16.85405 21.861623 17.40625 21.3125 C 17.958427 20.763384 18.459519 20.203143 18.90625 19.59375 C 19.957599 18.131391 20.774525 16.733018 21.34375 15.40625 C 21.912943 14.0795 22.25668 13.14316 22.34375 12.625 C 22.40902 12.306925 22.40679 11.992207 22.375 11.6875 C 22.343174 11.382819 22.251661 11.126135 22.0625 10.875 C 21.768112 10.537674 21.383087 10.31782 20.90625 10.25 C 20.667817 10.216095 20.412114 10.217916 20.1875 10.21875 z "
       id="rect4446" />
    <g
       style="font-size:24px;font-style:normal;font-variant:normal;font-weight:normal;font-stretch:normal;line-height:125%;letter-spacing:0px;word-spacing:0px;fill:#4d4d4d;fill-opacity:1;stroke:none;font-family:FontAwesome;-inkscape-font-specification:FontAwesome"
       id="text4448" />
  </g>
</svg>
